<?xml version="1.0" encoding="UTF-8" standalone="no"?>
<svg
   xmlns:dc="http://purl.org/dc/elements/1.1/"
   xmlns:cc="http://creativecommons.org/ns#"
   xmlns:rdf="http://www.w3.org/1999/02/22-rdf-syntax-ns#"
   xmlns:svg="http://www.w3.org/2000/svg"
   xmlns="http://www.w3.org/2000/svg"
   viewBox="0 0 217.33333 102.66667"
   height="102.66667"
   width="217.33333"
   xml:space="preserve"
   id="svg2"
   version="1.1"><metadata
     id="metadata8"><rdf:RDF><cc:Work
         rdf:about=""><dc:format>image/svg+xml</dc:format><dc:type
           rdf:resource="http://purl.org/dc/dcmitype/StillImage" /></cc:Work></rdf:RDF></metadata><defs
     id="defs6"><clipPath
       id="clipPath20"
       clipPathUnits="userSpaceOnUse"><path
         id="path18"
         d="M 0,0 H 1626.38 V 765.352 H 0 Z" /></clipPath></defs><g
     transform="matrix(1.3333333,0,0,-1.3333333,0,102.66667)"
     id="g10"><g
       transform="scale(0.1)"
       id="g12"><g
         id="g14"><g
           clip-path="url(#clipPath20)"
           id="g16"><path
             id="path22"
             style="fill:#00adef;fill-opacity:1;fill-rule:nonzero;stroke:none"
             d="m 474.191,477.219 c 0,-2.223 0,-119.938 0,-119.938 -0.457,-45.761 -34.226,-73.093 -90.339,-73.093 -56.114,0 -89.883,27.332 -90.336,73.101 0,0 0,117.707 0,119.93 2.121,0 48.632,0 50.754,0 0,-2.219 0,-117.293 0,-117.293 0,-25.223 15.164,-40.895 39.582,-40.895 24.421,0 39.586,15.672 39.586,40.895 0,0 0,115.074 0,117.293 2.121,0 48.632,0 50.753,0" /><path
             id="path24"
             style="fill:#231f20;fill-opacity:1;fill-rule:nonzero;stroke:none"
             d="m 709.953,352.484 c 0,34.059 15.93,70.454 60.637,70.454 35.453,0 57.476,-23.641 57.476,-61.704 0,0 0,-9.472 0,-11.343 -2.207,0 -94.707,0 -94.707,0 v -1.125 c 0,-30.871 12.903,-48.571 35.395,-48.571 20.094,0 30.012,8.2 33.191,27.032 1.485,0 21.512,0 24.133,0 -4.23,-27.301 -25.012,-43.067 -57.598,-43.067 -50.921,0 -58.527,42.809 -58.527,68.324 z m 23.973,13.789 -0.008,-1.136 h 69.871 v 1.129 c 0,26.199 -12.441,40.629 -35.035,40.629 -22.637,0 -34.652,-20.434 -34.828,-40.622" /><path
             id="path26"
             style="fill:#231f20;fill-opacity:1;fill-rule:nonzero;stroke:none"
             d="m 883.805,477.219 c 0,-2.223 0,-186.871 0,-189.094 -1.969,0 -20.977,0 -22.946,0 0,2.223 0,186.871 0,189.094 1.969,0 20.977,0 22.946,0" /><path
             id="path28"
             style="fill:#231f20;fill-opacity:1;fill-rule:nonzero;stroke:none"
             d="m 266.32,477.207 c 0,-2.062 0,-32.805 0,-34.863 -2.179,0 -59.386,0 -59.386,0 0,0 0,-151.985 0,-154.207 -2.118,0 -48.633,0 -50.75,0 0,2.222 0,154.207 0,154.207 0,0 -57.2074,0 -59.3871,0 0,2.058 0,32.801 0,34.863 2.2187,0 167.3051,0 169.5231,0" /><path
             id="path30"
             style="fill:#231f20;fill-opacity:1;fill-rule:nonzero;stroke:none"
             d="m 150.879,514.719 -0.336,1.605 c -9.73,44.36 13.734,79.606 69.75,104.75 11.965,5.356 25.531,8.824 38.652,12.172 23,5.875 46.778,11.949 63.266,28.438 0,0.004 3.672,6.121 3.672,6.121 1.519,-0.223 1.441,-3.293 -0.278,-7.926 -3.699,-9.938 -17.757,-19.766 -32.64,-30.172 -18.649,-13.035 -37.926,-26.516 -37.934,-41.715 -0.019,-7.289 2.219,-12.64 6.649,-15.902 5,-3.684 12.675,-4.285 21.047,-1.66 5.808,1.82 12.89,6.078 18.945,11.39 0.004,0.004 1.137,1.063 1.137,1.063 0.73,0.691 2.25,2.133 2.695,2.023 0.394,-0.301 0.453,-1.797 -0.582,-4.215 -10.262,-35.648 -47.488,-86.32 -90.801,-89.089 -0.039,-0.004 -5.914,0.031 -5.914,0.031 -0.047,0.515 2.555,1.597 4.852,2.562 l 7.699,4.075 c 17.461,13.578 22.555,27.304 26.297,49.457 0.422,2.507 1.164,8.421 -1.075,9.203 -2.089,0.726 -3.328,-1.524 -5.203,-4.922 -5.25,-9.219 -17.066,-18.125 -26.39,-17.539 -5.008,0.316 -8.723,3.308 -11.032,8.898 -3.332,8.035 2.055,15.856 8.27,24.899 4.871,7.066 10.379,15.078 12.5,24.515 l 0.535,6.926 -1.597,0.129 c -1.536,0.137 -3.637,-2.047 -6.254,-6.481 -5.618,-9.523 -15.563,-16.964 -26.094,-24.843 C 173,555.258 154.68,541.555 154.992,516.25 c 0.031,-4.535 0.094,-12.141 -1.062,-12.789 -0.508,0.519 -1.625,4.328 -3.051,11.258" /><path
             id="path32"
             style="fill:#231f20;fill-opacity:1;fill-rule:nonzero;stroke:none"
             d="m 1159.47,475.348 h -8.1 v -43.614 h 11.17 c 13.59,0 20.77,7.536 20.77,21.797 0,7.043 -1.94,12.504 -5.76,16.215 -4.07,3.949 -10.15,5.836 -18.08,5.602 z m 1.96,1.871 c 15.98,0 24.43,-8.196 24.43,-23.688 0,-15.484 -8.45,-23.668 -24.43,-23.668 0,0 -10.38,0 -12.27,0 0,2.11 0,45.242 0,47.356 1.89,0 12.27,0 12.27,0" /><path
             id="path34"
             style="fill:#231f20;fill-opacity:1;fill-rule:nonzero;stroke:none"
             d="m 1196.3,448.895 -0.11,-1.227 h 24.51 l -0.08,1.203 c -0.57,7.977 -5.18,12.731 -12.33,12.731 -7.99,0 -11.45,-6.84 -11.99,-12.707 z m -2.34,-2.915 c 0,8.258 4.46,17.145 14.26,17.145 11.53,0 14.27,-8.977 14.5,-16.984 -2.25,0 -26.58,0 -26.58,0 l 0.03,-1.145 c 0.16,-9.172 5.05,-14.644 13.08,-14.644 4.99,0 9.03,3.441 10.53,8.25 0.42,0 0.92,0 1.82,0 -2.21,-6.372 -6.39,-9.77 -13.66,-9.77 -10.32,0 -13.98,9.238 -13.98,17.148" /><path
             id="path36"
             style="fill:#231f20;fill-opacity:1;fill-rule:nonzero;stroke:none"
             d="m 1234.37,477.227 c 0,-2.11 0,-45.247 0,-47.352 -0.75,0 -1.13,0 -1.87,0 0,2.105 0,45.242 0,47.352 0.74,0 1.12,0 1.87,0" /><path
             id="path38"
             style="fill:#231f20;fill-opacity:1;fill-rule:nonzero;stroke:none"
             d="m 1248.67,462.105 h 1.13 v 8.481 c 0,5.371 2.01,7.465 7.18,7.465 l 2.56,-0.457 c 0,0 0.05,-0.602 0.11,-1.203 -0.65,0.07 -1.3,0.132 -1.3,0.132 l -5.26,-1.656 c -1.54,-1.601 -1.56,-4.023 -1.43,-7.273 v -5.489 c 0,0 6.18,0 7.84,0 0,-0.64 0,-0.882 0,-1.523 -1.66,0 -7.84,0 -7.84,0 0,0 0,-28.609 0,-30.707 -0.74,0 -1.12,0 -1.86,0 0,2.098 0,30.707 0,30.707 0,0 -5.36,0 -6.95,0 0,0.641 0,0.883 0,1.523 1.59,0 5.82,0 5.82,0" /><path
             id="path40"
             style="fill:#231f20;fill-opacity:1;fill-rule:nonzero;stroke:none"
             d="m 1273.33,470.648 c 0,-2.265 0,-8.543 0,-8.543 0,0 6.18,0 7.83,0 0,-0.64 0,-0.882 0,-1.523 -1.65,0 -7.83,0 -7.83,0 v -24.219 c 0,0.024 1.49,-4.425 1.49,-4.425 l 4.37,-1.579 c 0,0 1.3,0.153 2.45,0.289 0,-0.613 0,-0.812 0,-1.351 -1.03,-0.152 -3.06,-0.453 -3.06,-0.453 -2.68,0 -4.51,0.535 -5.61,1.64 -1.54,1.543 -1.52,4.2 -1.51,6.762 v 23.336 c 0,0 -5.29,0 -6.87,0 0,0.641 0,0.883 0,1.523 1.58,0 6.87,0 6.87,0 0,0 0,6.543 0,7.739 0.52,0.222 0.98,0.426 1.87,0.804" /><path
             id="path42"
             style="fill:#231f20;fill-opacity:1;fill-rule:nonzero;stroke:none"
             d="m 1183.18,406.352 c 0,-2.102 0,-31.024 0,-31.024 -0.14,-10.863 -6.5,-17.359 -17.01,-17.359 -10.51,0 -16.86,6.496 -17.01,17.375 0,0 0,28.906 0,31.008 0.84,0 1.38,0 2.21,0 0,-2.102 0,-30.957 0,-30.957 0.37,-9.614 6.04,-15.559 14.8,-15.559 8.76,0 14.44,5.945 14.8,15.516 0,0 0,28.898 0,31 0.84,0 1.37,0 2.21,0" /><path
             id="path44"
             style="fill:#231f20;fill-opacity:1;fill-rule:nonzero;stroke:none"
             d="m 1198.34,386.582 c 2.1,3.715 5.49,5.68 9.81,5.68 9.12,0 11.03,-6.973 11.03,-12.821 0,0 0,-18.41 0,-20.441 -0.74,0 -1.13,0 -1.87,0 0,2.035 0,21.133 0,21.133 0,6.547 -3.91,10.609 -10.2,10.609 -7.61,0 -11.01,-6.531 -11.01,-13.008 0,0 0,-16.722 0,-18.734 -0.74,0 -1.13,0 -1.87,0 0,2.074 0,25.605 0,25.605 0,0 -0.27,6.536 -0.27,6.625 0.8,0 1.22,0 1.97,0 0.06,-1.343 0.33,-7.953 0.33,-7.953 l 2.08,3.305" /><path
             id="path46"
             style="fill:#231f20;fill-opacity:1;fill-rule:nonzero;stroke:none"
             d="m 1232.92,406.352 c 0,-0.993 0,-1.903 0,-2.895 -0.92,0 -1.64,0 -2.56,0 0,0.992 0,1.902 0,2.895 0.92,0 1.64,0 2.56,0" /><path
             id="path48"
             style="fill:#231f20;fill-opacity:1;fill-rule:nonzero;stroke:none"
             d="m 1232.58,391.23 c 0,-2.046 0,-30.183 0,-32.23 -0.74,0 -1.13,0 -1.87,0 0,2.047 0,30.184 0,32.23 0.74,0 1.13,0 1.87,0" /><path
             id="path50"
             style="fill:#231f20;fill-opacity:1;fill-rule:nonzero;stroke:none"
             d="m 1271,391.23 c -1.09,-2.761 -12.26,-30.921 -12.78,-32.23 -0.87,0 -2.29,0 -3.15,0 -0.52,1.289 -12.02,29.445 -13.16,32.23 0.99,0 1.52,0 2.1,0 0.55,-1.332 12.66,-30.664 12.66,-30.664 0,0 11.68,29.309 12.23,30.664 0.59,0 1.12,0 2.1,0" /><path
             id="path52"
             style="fill:#231f20;fill-opacity:1;fill-rule:nonzero;stroke:none"
             d="m 1278.82,378.035 -0.11,-1.226 h 24.51 l -0.09,1.211 c -0.57,7.964 -5.18,12.722 -12.33,12.722 -7.48,0 -11.41,-6.383 -11.98,-12.707 z m -2.36,-2.918 c 0,8.258 4.47,17.145 14.26,17.145 11.54,0 14.28,-8.977 14.5,-16.981 -2.24,0 -26.56,0 -26.56,0 l 0.02,-1.144 c 0.16,-9.172 5.06,-14.645 13.09,-14.645 4.98,0 9.02,3.442 10.52,8.246 0.42,0 0.92,0 1.83,0 -2.21,-6.371 -6.4,-9.769 -13.66,-9.769 -10.33,0 -14,9.238 -14,17.148" /><path
             id="path54"
             style="fill:#231f20;fill-opacity:1;fill-rule:nonzero;stroke:none"
             d="m 1315.36,384.605 z m 10.94,7.657 c 0.01,0 1.94,-0.032 2.95,-0.039 0,-0.653 0,-0.914 0,-1.614 -0.41,0.039 -1.42,0.133 -1.42,0.133 -6.49,0 -10.45,-4.519 -10.61,-12.094 0,0 0,-17.628 0,-19.648 -0.74,0 -1.12,0 -1.86,0 0,2.074 0,25.605 0,25.605 l -0.23,6.008 c 0,0 -0.02,0.34 -0.04,0.617 0.8,0 1.22,0 1.97,0 0.05,-1.343 0.16,-4.003 0.16,-4.003 l 2.33,-0.329 c 1.09,3.09 3.8,5.25 6.75,5.364" /><path
             id="path56"
             style="fill:#231f20;fill-opacity:1;fill-rule:nonzero;stroke:none"
             d="m 1357.54,367.496 c 0,5.504 -5.42,6.699 -10.66,7.856 l -1.14,0.253 c -5.69,1.368 -10.05,2.84 -10.05,8.168 0,7.872 8.82,8.489 11.52,8.489 6.57,0 9.87,-2.617 10.85,-7.289 -1.04,0 -1.72,0 -2.2,0 -0.93,3.535 -3.93,5.769 -9.06,5.769 -5.41,0 -8.9,-2.629 -8.9,-6.695 0,-4.442 3.9,-5.434 9.3,-6.801 l 7.46,-2.164 c 3.14,-1.082 5.09,-3.758 5.09,-6.977 0,-7.003 -6.71,-10.136 -13.37,-10.136 -5.04,0 -10.7,2.289 -11.56,8.187 1.08,0 1.91,0 2.47,0 0.87,-4.144 4.17,-6.664 10.12,-6.664 5.05,0 10.13,2.477 10.13,8.004" /><path
             id="path58"
             style="fill:#231f20;fill-opacity:1;fill-rule:nonzero;stroke:none"
             d="m 1372.2,406.352 c 0,-0.993 0,-1.903 0,-2.895 -0.92,0 -1.64,0 -2.56,0 0,0.992 0,1.902 0,2.895 0.92,0 1.64,0 2.56,0" /><path
             id="path60"
             style="fill:#231f20;fill-opacity:1;fill-rule:nonzero;stroke:none"
             d="m 1371.85,391.23 c 0,-2.046 0,-30.183 0,-32.23 -0.74,0 -1.12,0 -1.86,0 0,2.047 0,30.184 0,32.23 0.74,0 1.12,0 1.86,0" /><path
             id="path62"
             style="fill:#231f20;fill-opacity:1;fill-rule:nonzero;stroke:none"
             d="m 1390.04,399.781 c 0,-2.265 0,-8.551 0,-8.551 0,0 6.18,0 7.84,0 0,-0.64 0,-0.878 0,-1.519 -1.66,0 -7.84,0 -7.84,0 v -24.219 c 0,0.028 1.49,-4.422 1.49,-4.422 l 4.37,-1.578 c 0,0 1.31,0.153 2.45,0.289 0,-0.617 0,-0.82 0,-1.351 -1.03,-0.16 -3.06,-0.461 -3.06,-0.461 -2.67,0 -4.51,0.539 -5.61,1.64 -1.54,1.547 -1.52,4.2 -1.51,6.77 v 23.332 c 0,0 -5.29,0 -6.87,0 0,0.641 0,0.879 0,1.519 1.58,0 6.87,0 6.87,0 0,0 0,6.547 0,7.747 0.52,0.222 0.99,0.421 1.87,0.804" /><path
             id="path64"
             style="fill:#231f20;fill-opacity:1;fill-rule:nonzero;stroke:none"
             d="m 1434.98,391.23 c -1.14,-2.855 -17.6,-44.082 -18.13,-45.421 -0.59,0 -1.13,0 -2.11,0 0.96,2.414 4.61,11.648 4.61,11.648 0,0.734 -10.87,27.063 -13.65,33.773 1.15,0 1.9,0 2.57,0 0.54,-1.347 12.37,-30.757 12.37,-30.757 0,0 11.77,29.406 12.31,30.757 0.58,0 1.08,0 2.03,0" /><path
             id="path66"
             style="fill:#231f20;fill-opacity:1;fill-rule:nonzero;stroke:none"
             d="m 1462.72,375.117 c 0,-7.523 3.98,-15.625 12.74,-15.625 8.75,0 12.73,8.102 12.73,15.625 0,7.524 -3.98,15.625 -12.73,15.625 -8.76,0 -12.74,-8.101 -12.74,-15.625 z m -2.21,0 c 0,8.531 4.63,17.145 14.95,17.145 10.32,0 14.95,-8.614 14.95,-17.145 0,-8.535 -4.63,-17.148 -14.95,-17.148 -10.32,0 -14.95,8.613 -14.95,17.148" /><path
             id="path68"
             style="fill:#231f20;fill-opacity:1;fill-rule:nonzero;stroke:none"
             d="m 1501.15,391.23 h 1.13 v 8.489 c 0,5.371 2.01,7.465 7.18,7.465 l 2.57,-0.465 c 0,0 0.05,-0.602 0.1,-1.199 -0.64,0.066 -1.29,0.128 -1.29,0.128 l -5.27,-1.656 c -1.53,-1.594 -1.56,-4.019 -1.42,-7.269 v -5.493 c 0,0 6.17,0 7.83,0 0,-0.64 0,-0.878 0,-1.519 -1.66,0 -7.83,0 -7.83,0 0,0 0,-28.613 0,-30.711 -0.75,0 -1.13,0 -1.87,0 0,2.098 0,30.711 0,30.711 0,0 -5.36,0 -6.94,0 0,0.641 0,0.879 0,1.519 1.58,0 5.81,0 5.81,0" /><path
             id="path70"
             style="fill:#231f20;fill-opacity:1;fill-rule:nonzero;stroke:none"
             d="m 1183.18,335.488 c 0,-0.742 0,-1.129 0,-1.871 -1.94,0 -15.73,0 -15.73,0 0,0 0,-43.336 0,-45.48 -0.85,0 -1.42,0 -2.27,0 0,2.144 0,45.48 0,45.48 0,0 -14.07,0 -16.02,0 0,0.742 0,1.129 0,1.871 2.06,0 31.97,0 34.02,0" /><path
             id="path72"
             style="fill:#231f20;fill-opacity:1;fill-rule:nonzero;stroke:none"
             d="m 1182.92,307.168 -0.11,-1.23 h 24.51 l -0.09,1.21 c -0.57,7.969 -5.18,12.727 -12.32,12.727 -8,0 -11.46,-6.844 -11.99,-12.707 z m -2.35,-2.918 c 0,8.254 4.46,17.145 14.27,17.145 11.52,0 14.26,-8.973 14.49,-16.981 -2.24,0 -26.58,0 -26.58,0 l 0.03,-1.148 c 0.17,-9.168 5.06,-14.641 13.08,-14.641 4.99,0 9.03,3.441 10.54,8.246 0.41,0 0.92,0 1.82,0 -2.21,-6.367 -6.39,-9.766 -13.66,-9.766 -10.33,0 -13.99,9.239 -13.99,17.145" /><path
             id="path74"
             style="fill:#231f20;fill-opacity:1;fill-rule:nonzero;stroke:none"
             d="m 1217.74,304.25 c 0,8.254 4.46,17.145 14.26,17.145 6.39,0 10.61,-3.844 11.51,-9.352 -1,0 -1.61,0 -2.14,0 -0.83,4.891 -4.15,7.832 -10.06,7.832 -6.58,0 -11.36,-6.547 -11.36,-15.562 0,-9.094 4.78,-15.688 11.36,-15.688 5.44,0 9.12,3.305 10.03,8.035 0.51,0 1.12,0 2.13,0 -1.38,-6.176 -5.03,-9.555 -11.75,-9.555 -10.32,0 -13.98,9.239 -13.98,17.145" /><path
             id="path76"
             style="fill:#231f20;fill-opacity:1;fill-rule:nonzero;stroke:none"
             d="m 1254.99,335.488 c 0,-2.015 0,-23.523 0,-23.523 l 2.25,3.75 c 2.09,3.715 5.48,5.68 9.8,5.68 9.12,0 11.03,-6.969 11.03,-12.821 0,0 0,-18.406 0,-20.437 -0.74,0 -1.13,0 -1.87,0 0,2.035 0,21.133 0,21.133 0,6.539 -3.9,10.605 -10.19,10.605 -7.61,0 -11.02,-6.535 -11.02,-13.012 0,0 0,-16.718 0,-18.726 -0.74,0 -1.12,0 -1.86,0 0,2.105 0,45.242 0,47.351 0.74,0 1.12,0 1.86,0" /><path
             id="path78"
             style="fill:#231f20;fill-opacity:1;fill-rule:nonzero;stroke:none"
             d="m 1292.62,315.715 c 2.1,3.715 5.49,5.68 9.8,5.68 9.12,0 11.04,-6.969 11.04,-12.821 0,0 0,-18.406 0,-20.437 -0.74,0 -1.13,0 -1.87,0 0,2.035 0,21.133 0,21.133 0,6.539 -3.9,10.605 -10.19,10.605 -7.62,0 -11.03,-6.535 -11.03,-13.012 0,0 0,-16.718 0,-18.726 -0.74,0 -1.12,0 -1.86,0 0,2.074 0,25.597 0,25.597 0,0 -0.28,6.598 -0.28,6.625 0.8,0 1.23,0 1.98,0 0.05,-1.339 0.32,-7.968 0.32,-7.968 l 2.09,3.324" /><path
             id="path80"
             style="fill:#231f20;fill-opacity:1;fill-rule:nonzero;stroke:none"
             d="m 1325.54,304.25 c 0,-7.527 3.99,-15.625 12.74,-15.625 8.76,0 12.74,8.098 12.74,15.625 0,7.523 -3.98,15.625 -12.74,15.625 -8.75,0 -12.74,-8.102 -12.74,-15.625 z m -2.2,0 c 0,8.531 4.62,17.145 14.94,17.145 10.33,0 14.95,-8.614 14.95,-17.145 0,-8.531 -4.62,-17.145 -14.95,-17.145 -10.32,0 -14.94,8.614 -14.94,17.145" /><path
             id="path82"
             style="fill:#231f20;fill-opacity:1;fill-rule:nonzero;stroke:none"
             d="m 1364.41,335.488 c 0,-2.109 0,-45.246 0,-47.351 -0.74,0 -1.12,0 -1.87,0 0,2.105 0,45.242 0,47.351 0.75,0 1.13,0 1.87,0" /><path
             id="path84"
             style="fill:#231f20;fill-opacity:1;fill-rule:nonzero;stroke:none"
             d="m 1376.09,304.25 c 0,-7.527 3.99,-15.625 12.75,-15.625 8.75,0 12.73,8.098 12.73,15.625 0,7.523 -3.98,15.625 -12.73,15.625 -8.76,0 -12.75,-8.102 -12.75,-15.625 z m -2.2,0 c 0,8.531 4.63,17.145 14.95,17.145 10.32,0 14.94,-8.614 14.94,-17.145 0,-8.531 -4.62,-17.145 -14.94,-17.145 -10.32,0 -14.95,8.614 -14.95,17.145" /><path
             id="path86"
             style="fill:#231f20;fill-opacity:1;fill-rule:nonzero;stroke:none"
             d="m 1414.27,304.863 c 0,-7.496 4.09,-15.078 11.91,-15.078 8.9,0 12.06,8.199 12.06,15.227 0,7.386 -4.18,14.863 -12.19,14.863 -8.1,0 -11.78,-7.781 -11.78,-15.012 z m -2.2,-0.336 c 0,3.953 0.98,16.868 13.56,16.868 4.33,0 7.64,-1.875 10.42,-5.895 l 1.93,-2.789 0.26,3.652 c 0,0 0.1,2.653 0.16,3.996 0.75,0 1.18,0 1.99,0 -0.03,-0.632 -0.28,-6.625 -0.28,-6.625 0,0 0,-21.371 0,-21.707 0,-6.914 -0.29,-12.636 -6.64,-15.609 -0.01,-0.008 -7.36,-1.477 -7.36,-1.477 -2.75,0 -11.07,0.743 -12.14,7.024 1.12,0 2.05,0 2.5,0 1.08,-3.332 4.53,-5.5 10.2,-5.5 5.56,0 11.42,3.98 11.57,10.644 v 6.489 l -2.28,0.5 c -1.69,-3.434 -5.88,-5.836 -10.18,-5.836 -8.59,0 -13.71,6.086 -13.71,16.265" /><path
             id="path88"
             style="fill:#231f20;fill-opacity:1;fill-rule:nonzero;stroke:none"
             d="m 1477.69,320.359 c -1.14,-2.855 -17.6,-44.082 -18.13,-45.418 -0.59,0 -1.12,0 -2.1,0 0.96,2.411 4.61,11.653 4.61,11.653 0,0.742 -10.88,27.058 -13.66,33.765 1.15,0 1.91,0 2.57,0 0.54,-1.343 12.38,-30.754 12.38,-30.754 0,0 11.76,29.403 12.3,30.754 0.58,0 1.08,0 2.03,0" /><path
             id="path90"
             style="fill:#231f20;fill-opacity:1;fill-rule:nonzero;stroke:none"
             d="m 938.688,418.906 h 1.128 v 25.992 c 0,22.723 15.137,36.293 40.493,36.293 0,0 15.308,-2.265 16.898,-2.5 0,-1.66 0,-16.671 0,-18.718 -1.309,0.093 -3.406,0.246 -3.406,0.246 l -8.18,0.445 c -14.828,0 -22.867,-3.047 -22.867,-19.144 v -22.614 c 0,0 28.625,0 30.723,0 0,-1.847 0,-13.418 0,-15.265 -2.098,0 -30.723,0 -30.723,0 0,0 0,-113.289 0,-115.504 -1.969,0 -20.973,0 -22.938,0 0,2.215 0,115.504 0,115.504 0,0 -23.886,0 -25.957,0 0,1.847 0,13.418 0,15.265 2.071,0 24.829,0 24.829,0" /><path
             id="path92"
             style="fill:#231f20;fill-opacity:1;fill-rule:nonzero;stroke:none"
             d="m 1055.95,454.801 c 0,-2.824 0,-35.895 0,-35.895 0,0 28.64,0 30.74,0 0,-1.847 0,-13.418 0,-15.265 -2.1,0 -30.74,0 -30.74,0 V 316.41 c 0,-9.215 6.89,-15.164 17.55,-15.164 0,0 9.89,1.18 12.14,1.449 0,-2.086 0,-15.336 0,-17.054 -1.68,-0.153 -16.1,-1.477 -16.1,-1.477 -36.53,0 -36.53,16.309 -36.53,33.574 v 85.903 c 0,0 -20.76,0 -22.8,0 0,1.847 0,13.418 0,15.261 l 22.8,-0.019 c 0,0 0,27.125 0,28.68 1.39,0.441 20.42,6.445 22.94,7.238" /><path
             id="path94"
             style="fill:#231f20;fill-opacity:1;fill-rule:nonzero;stroke:none"
             d="m 554.875,456.695 h -1.129 V 308.656 h 40.32 c 39.895,0 63.707,27.668 63.707,74.004 0,46.36 -23.812,74.035 -63.707,74.035 z m 39.184,20.524 c 82.855,0 89.296,-72.375 89.296,-94.559 0,-22.172 -6.441,-94.523 -89.296,-94.523 0,0 -62.422,0 -64.606,0 0,2.218 0,186.859 0,189.082 2.184,0 64.606,0 64.606,0" /><path
             id="path96"
             style="fill:#00adef;fill-opacity:1;fill-rule:nonzero;stroke:none"
             d="m 383.852,320.16 c 24.921,0 38.457,16.551 38.457,39.766 v 118.418 h 53.007 V 357.281 c -0.527,-53.293 -43.211,-74.218 -91.464,-74.218 -48.25,0 -90.938,20.925 -91.465,74.218 v 121.063 h 53.008 V 359.926 c 0,-23.215 13.535,-39.766 38.457,-39.766" /><path
             id="path98"
             style="fill:#231f20;fill-opacity:1;fill-rule:nonzero;stroke:none"
             d="m 829.195,348.766 v 12.468 c 0,36.836 -20.863,62.832 -58.605,62.832 -42.137,0 -61.766,-32.617 -61.766,-71.582 0,-39.238 16.981,-69.453 59.656,-69.453 31.817,0 55.137,15.098 59.122,45.324 h -26.504 c -2.93,-19.347 -12.723,-27.031 -32.344,-27.031 -25.731,0 -34.266,22.887 -34.266,47.442 z m -94.14,17.5 c 0.179,20.754 12.742,39.5 33.699,39.5 24.375,0 33.906,-16.703 33.906,-39.5 h -67.605" /><path
             id="path100"
             style="fill:#231f20;fill-opacity:1;fill-rule:nonzero;stroke:none"
             d="m 859.73,286.996 h 25.2031 V 478.344 H 859.73 Z" /><path
             id="path102"
             style="fill:#231f20;fill-opacity:1;fill-rule:nonzero;stroke:none"
             d="m 155.055,287.008 h 53.008 v 154.207 h 59.382 v 37.121 H 95.668 v -37.121 h 59.387 V 287.008" /><path
             id="path104"
             style="fill:#231f20;fill-opacity:1;fill-rule:nonzero;stroke:none"
             d="m 282.387,571.508 c -12.93,-4.059 -26.27,-0.809 -26.231,16.484 0.02,26.36 61.926,48.457 70.508,71.496 2.129,5.742 2.258,10.469 -0.488,10.321 -1.973,-0.118 -0.43,-2.977 -4.766,-7.325 -25.644,-25.652 -68.613,-25.613 -101.582,-40.379 -21.621,-9.707 -84.98,-39.523 -70.39,-106.027 0.695,-3.152 2.578,-13.738 4.511,-13.738 2.246,0 2.227,6.289 2.168,13.926 -0.488,39.597 46.406,50.644 61.66,76.511 1.828,3.098 4.981,7.434 5.735,5.422 0.359,-0.976 0.125,-2.414 -0.489,-5.168 -4.777,-21.258 -27.011,-34.902 -20.714,-50.097 8.164,-19.727 31.738,-5.02 38.976,7.656 1.942,3.496 3.028,5.723 4.324,5.273 0.977,-0.34 0.938,-4.343 0.332,-7.949 -3.867,-22.879 -9.128,-35.73 -25.878,-48.75 -5.352,-4.168 -13.778,-5.039 -12.676,-8.242 0.285,-0.828 3.918,-0.742 6.808,-0.449 44.59,2.851 81.883,55.429 91.766,89.777 1.035,2.41 1.348,4.688 0.254,5.535 -1.348,1.035 -3.301,-1.347 -5.293,-3.113 -5.098,-4.473 -12.086,-9.141 -18.535,-11.164" /><path
             id="path106"
             style="fill:#231f20;fill-opacity:1;fill-rule:nonzero;stroke:none"
             d="m 1162.54,432.859 c 13.94,0 19.64,8.172 19.64,20.672 0,14.645 -8.59,21.102 -22.67,20.688 h -7.01 v -41.36 z m -1.11,45.485 c 16.29,0 25.56,-8.383 25.56,-24.813 0,-16.418 -9.27,-24.797 -25.56,-24.797 h -13.4 v 49.61 h 13.4" /><path
             id="path108"
             style="fill:#231f20;fill-opacity:1;fill-rule:nonzero;stroke:none"
             d="m 1219.49,448.793 c -0.48,6.672 -4.06,11.68 -11.2,11.68 -6.74,0 -10.31,-5.629 -10.86,-11.68 z m -22.19,-3.777 c 0.13,-7.348 3.5,-13.536 11.95,-13.536 4.88,0 8.93,3.5 9.96,8.25 h 4.33 c -2.13,-8.25 -7.28,-12.027 -15.6,-12.027 -10.3,0 -15.11,8.863 -15.11,18.277 0,9.34 5.15,18.274 15.39,18.274 11.54,0 15.73,-8.453 15.73,-19.238 h -26.65" /><path
             id="path110"
             style="fill:#231f20;fill-opacity:1;fill-rule:nonzero;stroke:none"
             d="m 1231.37,428.746 h 4.1172 v 49.6094 h -4.1172 z" /><path
             id="path112"
             style="fill:#231f20;fill-opacity:1;fill-rule:nonzero;stroke:none"
             d="m 1248.67,428.746 v 30.707 h -6.95 v 3.777 h 6.95 v 7.356 c 0,5.914 2.39,8.594 8.31,8.594 1.31,0 2.68,-0.489 3.91,-0.758 v -3.293 c -0.82,0.129 -1.71,0.266 -2.54,0.266 -5.63,0 -5.76,-2.821 -5.56,-7.758 v -4.407 h 7.84 v -3.777 h -7.84 v -30.707 h -4.12" /><path
             id="path114"
             style="fill:#231f20;fill-opacity:1;fill-rule:nonzero;stroke:none"
             d="m 1270.33,459.453 h -6.87 v 3.777 h 6.87 v 7.356 l 4.12,1.789 v -9.145 h 7.84 v -3.777 h -7.84 v -23.09 c -0.07,-3.148 1.58,-4.875 4.74,-4.875 1.24,0 2.48,0.071 3.58,0.414 v -3.574 c -1.31,-0.344 -2.82,-0.613 -4.19,-0.613 -8.73,0 -8.25,5.566 -8.25,10.238 v 21.5" /><path
             id="path116"
             style="fill:#231f20;fill-opacity:1;fill-rule:nonzero;stroke:none"
             d="m 1152.5,407.48 v -32.085 c 0.35,-9.008 5.5,-14.434 13.67,-14.434 8.18,0 13.33,5.426 13.67,14.434 v 32.085 h 4.47 v -32.152 c -0.14,-10.648 -6.12,-18.488 -18.14,-18.488 -12.03,0 -18,7.84 -18.14,18.488 v 32.152 h 4.47" /><path
             id="path118"
             style="fill:#231f20;fill-opacity:1;fill-rule:nonzero;stroke:none"
             d="m 1197.23,357.871 h -4.13 v 26.734 c 0,2.668 -0.21,5.418 -0.34,7.754 h 4.25 l 0.22,-5.086 0.13,-0.132 c 2.41,4.261 6.33,6.25 10.79,6.25 11.26,0 12.16,-9.961 12.16,-13.95 v -21.57 h -4.13 v 22.262 c 0,5.98 -3.43,9.48 -9.07,9.48 -6.8,0 -9.88,-5.703 -9.88,-11.879 v -19.863" /><path
             id="path120"
             style="fill:#231f20;fill-opacity:1;fill-rule:nonzero;stroke:none"
             d="m 1233.71,392.359 v -34.488 h -4.13 v 34.488 z m 0.34,9.969 h -4.82 v 5.152 h 4.82 v -5.152" /><path
             id="path122"
             style="fill:#231f20;fill-opacity:1;fill-rule:nonzero;stroke:none"
             d="m 1244.77,392.359 11.88,-28.789 11.48,28.789 h 4.54 l -13.69,-34.488 h -4.66 l -14.09,34.488 h 4.54" /><path
             id="path124"
             style="fill:#231f20;fill-opacity:1;fill-rule:nonzero;stroke:none"
             d="m 1302,377.934 c -0.48,6.671 -4.06,11.679 -11.2,11.679 -6.74,0 -10.31,-5.633 -10.86,-11.679 z m -22.19,-3.778 c 0.13,-7.355 3.51,-13.535 11.96,-13.535 4.87,0 8.93,3.5 9.95,8.246 h 4.32 c -2.11,-8.246 -7.27,-12.027 -15.58,-12.027 -10.3,0 -15.12,8.867 -15.12,18.277 0,9.348 5.15,18.274 15.38,18.274 11.56,0 15.74,-8.453 15.74,-19.235 h -26.65" /><path
             id="path126"
             style="fill:#231f20;fill-opacity:1;fill-rule:nonzero;stroke:none"
             d="m 1318.35,357.871 h -4.12 v 26.734 c 0.07,2.668 -0.21,5.418 -0.35,7.754 h 4.26 l 0.21,-5.086 h 0.14 c 1.24,3.512 4.33,5.985 7.77,6.118 1.37,0.07 2.74,0 4.12,-0.067 v -3.984 c -0.83,0.07 -1.72,0.273 -2.55,0.273 -6.12,0 -9.34,-4.394 -9.48,-10.988 v -20.754" /><path
             id="path128"
             style="fill:#231f20;fill-opacity:1;fill-rule:nonzero;stroke:none"
             d="m 1347.21,393.391 c 6.53,0 12.01,-2.258 12.58,-9.547 h -4.47 c -0.42,4.332 -4.27,5.769 -8.52,5.769 -3.86,0 -7.77,-1.508 -7.77,-5.566 0,-5.086 6.66,-4.606 16,-7.899 3.58,-1.238 5.85,-4.332 5.85,-8.043 0,-7.761 -7.22,-11.265 -14.5,-11.265 -5.98,0 -12.85,2.816 -12.99,10.445 h 4.47 c 0.34,-5.156 4.88,-6.664 9.55,-6.664 4.4,0 9,2.055 9,6.875 0,4.942 -5.42,5.766 -10.92,7.008 -5.43,1.305 -10.93,2.879 -10.93,9.269 0,7.145 6.59,9.618 12.65,9.618" /><path
             id="path130"
             style="fill:#231f20;fill-opacity:1;fill-rule:nonzero;stroke:none"
             d="m 1372.98,392.359 v -34.488 h -4.12 v 34.488 z m 0.35,9.969 h -4.82 v 5.152 h 4.82 v -5.152" /><path
             id="path132"
             style="fill:#231f20;fill-opacity:1;fill-rule:nonzero;stroke:none"
             d="m 1387.05,388.586 h -6.88 v 3.773 h 6.88 v 7.36 l 4.12,1.785 v -9.145 h 7.83 v -3.773 h -7.83 v -23.094 c -0.07,-3.148 1.57,-4.871 4.73,-4.871 1.25,0 2.49,0.067 3.58,0.41 v -3.57 c -1.31,-0.348 -2.81,-0.621 -4.19,-0.621 -8.73,0 -8.24,5.57 -8.24,10.238 v 21.508" /><path
             id="path134"
             style="fill:#231f20;fill-opacity:1;fill-rule:nonzero;stroke:none"
             d="m 1409.03,392.359 11.61,-28.851 11.54,28.851 h 4.47 l -19.04,-47.675 h -4.53 l 5.22,13.187 -14.29,34.488 h 5.02" /><path
             id="path136"
             style="fill:#231f20;fill-opacity:1;fill-rule:nonzero;stroke:none"
             d="m 1475.46,389.613 c -8.32,0 -11.61,-8.109 -11.61,-14.496 0,-6.39 3.29,-14.496 11.61,-14.496 8.31,0 11.61,8.106 11.61,14.496 0,6.387 -3.3,14.496 -11.61,14.496 z m 16.07,-14.496 c 0,-9.066 -5.08,-18.277 -16.07,-18.277 -11,0 -16.08,9.211 -16.08,18.277 0,9.071 5.08,18.274 16.08,18.274 10.99,0 16.07,-9.203 16.07,-18.274" /><path
             id="path138"
             style="fill:#231f20;fill-opacity:1;fill-rule:nonzero;stroke:none"
             d="m 1501.15,357.871 v 30.715 h -6.94 v 3.773 h 6.94 v 7.36 c 0,5.906 2.4,8.59 8.31,8.59 1.31,0 2.69,-0.493 3.91,-0.758 v -3.297 c -0.81,0.133 -1.7,0.266 -2.53,0.266 -5.63,0 -5.77,-2.817 -5.57,-7.75 v -4.411 h 7.84 v -3.773 h -7.84 v -30.715 h -4.12" /><path
             id="path140"
             style="fill:#231f20;fill-opacity:1;fill-rule:nonzero;stroke:none"
             d="m 1164.05,332.488 h -16.02 v 4.129 h 36.28 v -4.129 h -15.74 v -45.48 h -4.52 v 45.48" /><path
             id="path142"
             style="fill:#231f20;fill-opacity:1;fill-rule:nonzero;stroke:none"
             d="m 1206.1,307.066 c -0.47,6.668 -4.05,11.68 -11.19,11.68 -6.74,0 -10.32,-5.637 -10.87,-11.68 z m -22.19,-3.781 c 0.13,-7.351 3.51,-13.535 11.95,-13.535 4.88,0 8.94,3.504 9.97,8.25 h 4.32 c -2.12,-8.25 -7.27,-12.023 -15.59,-12.023 -10.3,0 -15.12,8.863 -15.12,18.273 0,9.344 5.15,18.273 15.4,18.273 11.53,0 15.73,-8.453 15.73,-19.238 h -26.66" /><path
             id="path144"
             style="fill:#231f20;fill-opacity:1;fill-rule:nonzero;stroke:none"
             d="m 1240.73,310.914 c -0.35,5.293 -3.71,7.832 -9.42,7.832 -6.32,0 -10.24,-6.598 -10.24,-14.433 0,-7.895 3.92,-14.563 10.24,-14.563 5.36,0 9.07,3.301 9.42,8.039 h 4.46 c -1.1,-7.902 -5.63,-11.812 -13.47,-11.812 -10.3,0 -15.11,8.863 -15.11,18.273 0,9.344 5.15,18.273 15.39,18.273 7.08,0 12.85,-4.261 13.19,-11.609 h -4.46" /><path
             id="path146"
             style="fill:#231f20;fill-opacity:1;fill-rule:nonzero;stroke:none"
             d="m 1256.12,316.27 h 0.14 c 2.4,4.261 6.32,6.253 10.78,6.253 11.27,0 12.16,-9.96 12.16,-13.949 v -21.566 h -4.13 v 22.262 c 0,5.972 -3.42,9.476 -9.06,9.476 -6.81,0 -9.89,-5.703 -9.89,-11.883 V 287.008 H 1252 v 49.609 h 4.12 V 316.27" /><path
             id="path148"
             style="fill:#231f20;fill-opacity:1;fill-rule:nonzero;stroke:none"
             d="m 1291.5,287.008 h -4.12 v 26.726 c 0,2.672 -0.21,5.426 -0.35,7.754 h 4.26 l 0.21,-5.082 0.14,-0.136 c 2.4,4.261 6.32,6.253 10.78,6.253 11.27,0 12.16,-9.96 12.16,-13.949 v -21.566 h -4.12 v 22.262 c 0,5.972 -3.43,9.476 -9.06,9.476 -6.81,0 -9.9,-5.703 -9.9,-11.883 v -19.855" /><path
             id="path150"
             style="fill:#231f20;fill-opacity:1;fill-rule:nonzero;stroke:none"
             d="m 1338.28,318.746 c -8.31,0 -11.61,-8.105 -11.61,-14.496 0,-6.395 3.3,-14.5 11.61,-14.5 8.32,0 11.61,8.105 11.61,14.5 0,6.391 -3.29,14.496 -11.61,14.496 z m 16.08,-14.496 c 0,-9.062 -5.08,-18.273 -16.08,-18.273 -10.99,0 -16.07,9.211 -16.07,18.273 0,9.07 5.08,18.273 16.07,18.273 11,0 16.08,-9.203 16.08,-18.273" /><path
             id="path152"
             style="fill:#231f20;fill-opacity:1;fill-rule:nonzero;stroke:none"
             d="m 1361.42,287.008 h 4.1172 v 49.6094 h -4.1172 z" /><path
             id="path154"
             style="fill:#231f20;fill-opacity:1;fill-rule:nonzero;stroke:none"
             d="m 1388.84,318.746 c -8.32,0 -11.62,-8.105 -11.62,-14.496 0,-6.395 3.3,-14.5 11.62,-14.5 8.31,0 11.6,8.105 11.6,14.5 0,6.391 -3.29,14.496 -11.6,14.496 z m 16.07,-14.496 c 0,-9.062 -5.08,-18.273 -16.07,-18.273 -11,0 -16.08,9.211 -16.08,18.273 0,9.07 5.08,18.273 16.08,18.273 10.99,0 16.07,-9.203 16.07,-18.273" /><path
             id="path156"
             style="fill:#231f20;fill-opacity:1;fill-rule:nonzero;stroke:none"
             d="m 1426.05,318.746 c -7.49,0 -10.65,-7.558 -10.65,-13.883 0,-6.312 3.23,-13.949 10.78,-13.949 7.9,0 10.93,7.356 10.93,14.098 0,6.59 -3.64,13.734 -11.06,13.734 z m 11.26,2.742 h 4.27 c -0.14,-2.328 -0.34,-5.082 -0.34,-7.754 v -20.683 c 0,-6.875 0.34,-14.086 -7.29,-17.66 -2.75,-1.309 -4.6,-1.578 -7.84,-1.578 -6.24,0 -13.66,2.125 -13.66,9.277 h 4.46 c 0.49,-4.125 5.36,-5.496 9.76,-5.496 5.36,0 10.31,3.777 10.44,9.539 v 6.465 h -0.13 c -2,-4.055 -6.74,-6.465 -11.2,-6.465 -10.38,0 -14.84,7.906 -14.84,17.394 0,9.344 4.19,17.996 14.69,17.996 5.02,0 8.6,-2.406 11.35,-6.382 l 0.13,0.265 0.2,5.082" /><path
             id="path158"
             style="fill:#231f20;fill-opacity:1;fill-rule:nonzero;stroke:none"
             d="m 1451.74,321.488 11.61,-28.851 11.55,28.851 h 4.46 l -19.03,-47.675 h -4.53 l 5.22,13.195 -14.3,34.48 h 5.02" /><path
             id="path160"
             style="fill:#231f20;fill-opacity:1;fill-rule:nonzero;stroke:none"
             d="m 963.883,287.008 v 115.508 h 30.722 v 17.519 h -30.722 v 21.485 c 0,15.378 7.402,18.015 21.738,18.015 4.219,0 8.477,-0.547 12.715,-0.781 v 20.91 c -5.898,1.336 -11.914,2.656 -18.027,2.656 -23.848,0 -41.621,-11.953 -41.621,-37.422 V 420.035 H 912.73 v -17.519 h 25.958 V 287.008 h 25.195" /><path
             id="path162"
             style="fill:#231f20;fill-opacity:1;fill-rule:nonzero;stroke:none"
             d="m 1009.08,420.035 v -17.519 h 22.8 v -84.778 c 0,-17.699 0.25,-34.703 37.66,-34.703 5.82,0 11.29,0.551 17.23,1.578 v 19.348 c -4.1,-0.988 -9.28,-1.586 -13.27,-1.586 -9.01,0 -16.42,4.527 -16.42,14.035 v 86.106 h 30.74 v 17.519 h -30.74 v 36.309 l -25.2,-7.949 v -28.379 l -22.8,0.019" /><path
             id="path164"
             style="fill:#231f20;fill-opacity:1;fill-rule:nonzero;stroke:none"
             d="m 554.875,455.566 h 39.191 c 44.231,0 62.579,-33.371 62.579,-72.906 0,-39.535 -18.348,-72.875 -62.579,-72.875 H 554.875 Z M 528.324,287.008 h 65.735 c 81.836,0 90.425,69.262 90.425,95.652 0,26.395 -8.589,95.684 -90.425,95.684 H 528.324 V 287.008" /></g></g></g></g></svg>